<svg width="30" height="30" viewBox="0 0 30 30" fill="none" xmlns="http://www.w3.org/2000/svg">
<path d="M27.1879 4.6875H2.8129C2.29434 4.6875 1.8754 5.10644 1.8754 5.625V24.375C1.8754 24.8935 2.29434 25.3125 2.8129 25.3125H27.1879C27.7064 25.3125 28.1254 24.8935 28.1254 24.375V5.625C28.1254 5.10644 27.7064 4.6875 27.1879 4.6875ZM24.8207 7.87792L15.5775 15.0703C15.349 15.249 15.0297 15.249 14.8012 15.0703L5.55508 7.87792C5.52023 7.85102 5.49466 7.81389 5.48197 7.77174C5.46928 7.72958 5.4701 7.68451 5.48431 7.64284C5.49852 7.60117 5.52542 7.56499 5.56123 7.53937C5.59703 7.51376 5.63996 7.49999 5.68399 7.49999H24.6918C24.7358 7.49999 24.7787 7.51376 24.8145 7.53937C24.8504 7.56499 24.8772 7.60117 24.8915 7.64284C24.9057 7.68451 24.9065 7.72958 24.8938 7.77174C24.8811 7.81389 24.8555 7.85102 24.8207 7.87792Z" fill="white"/>
</svg>
