<svg width="30" height="30" viewBox="0 0 30 30" fill="none" xmlns="http://www.w3.org/2000/svg">
<path d="M25.6099 21.4253L20.5286 16.8053C20.2884 16.587 19.9728 16.4706 19.6484 16.4806C19.324 16.4907 19.0161 16.6264 18.7899 16.8591L15.7986 19.9353C15.0786 19.7978 13.6311 19.3466 12.1411 17.8603C10.6511 16.3691 10.1999 14.9178 10.0661 14.2028L13.1399 11.2103C13.3729 10.9842 13.5088 10.6764 13.5188 10.3518C13.5289 10.0273 13.4122 9.71164 13.1936 9.47159L8.57489 4.39159C8.35619 4.15079 8.05224 4.00473 7.72758 3.98442C7.40293 3.96411 7.08314 4.07117 6.83614 4.28285L4.12365 6.60909C3.90754 6.82599 3.77855 7.11466 3.76115 7.42034C3.7424 7.73284 3.3849 15.1353 9.12489 20.8778C14.1324 25.8841 20.4049 26.2503 22.1324 26.2503C22.3849 26.2503 22.5399 26.2428 22.5811 26.2403C22.8868 26.2232 23.1753 26.0937 23.3911 25.8766L25.7161 23.1628C25.9286 22.9166 26.0365 22.5971 26.0166 22.2725C25.9968 21.9478 25.8508 21.6438 25.6099 21.4253Z" fill="white"/>
</svg>
