<svg width="549" height="128" viewBox="0 0 549 128" fill="none" xmlns="http://www.w3.org/2000/svg">
<path d="M158.549 100.136C160.127 97.7278 161.182 95.0144 161.644 92.1721C161.766 91.4839 161.85 90.7896 161.897 90.0923C161.897 89.7372 161.897 89.4075 161.897 89.0524V88.1646V85.3746L161.745 74.1892L161.339 51.8183L161.086 40.6582V35.0528C161.086 34.089 161.086 33.3534 160.959 31.8823C160.858 30.5343 160.62 29.2 160.249 27.9002C159.46 25.1348 157.986 22.6134 155.962 20.5701C153.78 18.3617 150.958 16.8973 147.896 16.385C144.77 15.8905 141.569 16.4718 138.816 18.0337C137.567 18.7225 136.415 19.5755 135.392 20.5701L134.657 21.331L134.2 21.889L133.287 22.9543C118.652 40.3031 108.329 52.8582 99.0964 64.348L80.8345 52.7567L75.1023 49.3073C86.1609 36.1434 96.6615 23.1825 117.054 0C94.2266 21.9143 82.1788 33.4802 69.6237 45.8071C60.721 40.227 51.869 34.6216 42.8395 29.0669L33.3534 23.1825L28.6104 20.2911L26.2262 18.82L25.6175 18.4649L24.5268 17.7547C23.7566 17.3687 22.9599 17.0381 22.1426 16.7655C18.7315 15.6496 15.0394 15.7482 11.6927 17.0445C8.7352 18.1976 6.14824 20.1357 4.21039 22.6499C2.44158 24.9492 1.19519 27.6065 0.558007 30.4366C0.235397 31.8014 0.0484835 33.1947 0 34.5963V37.716L0.355092 60.0869C0.355092 67.5439 0.608735 75.0008 0.786282 82.4578V88.0378V90.8278C0.802078 92.0146 0.878268 93.1998 1.01456 94.3788C1.40299 97.102 2.39995 99.7028 3.93139 101.988C5.64152 104.473 8.02638 106.418 10.805 107.593C13.7403 108.794 16.998 108.955 20.0374 108.05C21.4807 107.607 22.8488 106.948 24.0956 106.097C24.6778 105.7 25.2289 105.259 25.7443 104.778C26.0233 104.55 26.2516 104.296 26.5052 104.068L26.8349 103.713L27.0632 103.459L34.6723 95.2412C48.0644 80.6823 57.2715 70.2324 65.1089 61.1268L72.5659 65.9459L89.4328 76.548C78.1459 90.7771 66.783 105.387 48.6732 127.91C69.1671 106.528 82.1788 93.2628 94.9622 79.9214L110.383 89.6104L129.381 101.455L134.124 104.397L135.316 105.133L135.899 105.513L136.204 105.691L136.736 105.995C138.244 106.876 139.891 107.494 141.606 107.822C143.368 108.138 145.171 108.138 146.933 107.822C148.611 107.539 150.237 107 151.752 106.224C154.492 104.796 156.829 102.703 158.549 100.136ZM27.2915 88.0125L19.3019 95.9513L19.0736 96.205H18.896L18.617 96.4586L18.0844 96.8391C17.7639 97.0088 17.4229 97.1367 17.0699 97.2195C16.4911 97.3353 15.8902 97.2456 15.3705 96.9659C14.6623 96.499 14.0779 95.8675 13.6671 95.1254C13.2563 94.3833 13.0314 93.5527 13.0116 92.7048C13.0116 92.1468 13.0116 91.741 13.0116 90.6503V87.8603V82.2802C13.1807 74.8233 13.3329 67.3663 13.4682 59.9093L14.2291 37.6653V35.1289C14.2514 34.6567 14.328 34.1886 14.4574 33.7339C14.6604 32.9193 15.0513 32.1636 15.5988 31.5272C15.9585 31.0748 16.4308 30.725 16.9684 30.5127C17.1653 30.443 17.3802 30.443 17.5771 30.5127L34.9006 41.6474C42.7634 46.7202 50.6431 51.7929 58.5397 56.8657L27.2915 88.0125ZM148.657 35.0528V40.5821L148.429 51.7422L148.023 74.1131L147.871 85.2985V88.7734C147.883 88.8915 147.883 89.0104 147.871 89.1285C147.871 89.3567 147.871 89.585 147.871 89.8133C147.714 90.6612 147.376 91.4655 146.882 92.1721C146.52 92.6984 146.031 93.1257 145.462 93.415C145.233 93.5029 144.98 93.5029 144.751 93.415L144.447 93.2374L142.316 91.8678L137.32 88.7734L118.5 76.7002L105.818 68.5584C115.684 58.3368 126.464 46.5426 141.353 30.4366L142.316 29.3967L142.748 28.9148L143.001 28.6865C143.324 28.4111 143.682 28.1807 144.067 28.0017C144.61 27.7356 145.231 27.6726 145.817 27.8241C146.543 28.0677 147.19 28.5025 147.69 29.0827C148.19 29.663 148.524 30.3672 148.657 31.1214C148.769 31.6211 148.829 32.1312 148.835 32.6432L148.657 35.0528Z" fill="#E4252C"/>
<path d="M237.634 87.1246C237.658 87.5638 237.587 88.0031 237.425 88.4122C237.263 88.8213 237.014 89.1904 236.696 89.4941C236.378 89.7979 235.998 90.0291 235.582 90.1717C235.165 90.3143 234.723 90.3651 234.286 90.3204C233.515 90.3352 232.757 90.1183 232.11 89.6978C231.463 89.2773 230.958 88.6725 230.659 87.9616L214.096 51.7167C211.737 45.2236 208.212 41.1907 200.298 41.1907C191.472 41.1907 187.261 46.2635 187.261 53.5429V98.9695H197.178V54.0502C197.145 53.5963 197.212 53.1407 197.376 52.7162C197.54 52.2917 197.797 51.909 198.127 51.5958C198.457 51.2827 198.853 51.0468 199.285 50.9054C199.718 50.764 200.176 50.7206 200.628 50.7782C201.419 50.741 202.199 50.9709 202.843 51.431C203.487 51.8911 203.958 52.5546 204.179 53.3146L220.741 89.4581C223.1 95.9512 226.702 99.984 234.615 99.984C243.366 99.984 247.652 94.9113 247.652 87.5304V42.2053H237.634V87.1246Z" fill="white"/>
<path d="M262.161 42.2051H252.243V98.9693H262.161V42.2051Z" fill="white"/>
<path d="M380.026 42.2051H367.674L349.412 63.1303L332.013 42.2051H316.262L298.025 63.1303L280.6 42.2051H268.425L291.481 69.3698L266.117 98.9693H278.393L297.746 76.4209L316.617 98.9693H329.831L349.158 76.4209L368.004 98.9693H380.026L355.652 70.1307L380.026 42.2051ZM323.161 92.4255L304.239 70.1307L324.175 47.3032L342.944 69.4459L323.161 92.4255Z" fill="white"/>
<path d="M415.307 65.5906H402.017C395.371 65.5906 393.596 62.2933 393.596 58.8438C393.596 54.9124 395.879 52.1224 401.002 52.1224H430.094V42.2051H401.332C388.65 42.2051 383.577 49.1041 383.577 58.5141C383.577 66.4276 387.103 74.9245 402.245 74.9245H415.536C422.511 74.9245 424.438 78.2725 424.438 81.9756C424.438 86.1099 421.902 89.0521 416.626 89.0521H384.693V98.9693H416.296C429.257 98.9693 434.381 91.9182 434.381 82.3307C434.381 74.1635 430.754 65.5906 415.307 65.5906Z" fill="white"/>
<path d="M472.528 42.2051H464.767C448.306 42.2051 439.124 51.6151 439.124 70.714C439.124 89.813 448.204 98.9693 464.767 98.9693H472.528C489.091 98.9693 498.171 89.7115 498.171 70.714C498.171 51.7165 489.091 42.2051 472.528 42.2051ZM472.528 89.0521H464.767C453.759 89.0521 449.041 83.675 449.041 70.714C449.041 57.7531 453.835 52.1224 464.767 52.1224H472.528C483.46 52.1224 488.152 57.677 488.152 70.638C488.152 83.5989 483.46 89.0521 472.528 89.0521Z" fill="white"/>
<path d="M526.959 89.0521C518.031 89.0521 515.342 84.7656 515.342 79.287V42.2051H505.425V79.3631C505.425 90.7261 511.309 98.9693 526.375 98.9693H549V89.0521H526.959Z" fill="white"/>
<path d="M262.161 27.9255H252.243V37.8428H262.161V27.9255Z" fill="#E4252C"/>
</svg>
