<svg width="217" height="51" viewBox="0 0 217 51" fill="none" xmlns="http://www.w3.org/2000/svg">
<path d="M62.6688 39.5803C63.2926 38.6283 63.7094 37.5558 63.8919 36.4323C63.9402 36.1603 63.9736 35.8859 63.9922 35.6103C63.9922 35.4699 63.9922 35.3396 63.9922 35.1992V34.8483V33.7455L63.932 29.3243L63.7716 20.4819L63.6714 16.0707V13.8551C63.6714 13.4741 63.6714 13.1834 63.6212 12.6019C63.5814 12.0691 63.4873 11.5417 63.3405 11.028C63.0288 9.93487 62.446 8.93826 61.6462 8.13061C60.7839 7.25771 59.6684 6.67888 58.4582 6.47641C57.2225 6.28096 55.9571 6.51071 54.8691 7.12807C54.3752 7.40032 53.92 7.7375 53.5156 8.13061L53.2249 8.43137L53.0444 8.65193L52.6835 9.073C46.8989 15.9304 42.8185 20.893 39.1693 25.4345L31.951 20.8529L29.6852 19.4894C34.0563 14.2862 38.2068 9.16322 46.2673 0C37.2444 8.66195 32.4823 13.2335 27.5197 18.1059C24.0008 15.9003 20.502 13.6847 16.9329 11.4891L13.1834 9.16322L11.3087 8.02033L10.3663 7.43885L10.1257 7.2985L9.69457 7.01779C9.39014 6.86521 9.07521 6.73454 8.75218 6.6268C7.4039 6.18573 5.94454 6.2247 4.62171 6.73707C3.45271 7.19287 2.43018 7.9589 1.66422 8.95269C0.965068 9.86153 0.472415 10.9118 0.22056 12.0305C0.0930439 12.5699 0.0191638 13.1207 0 13.6747V14.9078L0.140355 23.7502C0.140355 26.6977 0.240611 29.6451 0.310789 32.5926V34.7982V35.901C0.317033 36.3701 0.347148 36.8385 0.401018 37.3045C0.554553 38.381 0.948614 39.4089 1.55394 40.3122C2.22989 41.2946 3.17254 42.0633 4.27083 42.5278C5.43103 43.0025 6.71869 43.0662 7.92008 42.7082C8.49053 42.533 9.0313 42.2728 9.52414 41.9363C9.75424 41.7793 9.97208 41.605 10.1758 41.415C10.2861 41.3247 10.3763 41.2245 10.4766 41.1343L10.6069 40.9939L10.6971 40.8936L13.7047 37.6454C18.9982 31.8908 22.6374 27.7604 25.7352 24.1612L28.6827 26.0661L35.3496 30.2567C30.8883 35.8809 26.3969 41.6556 19.2388 50.5581C27.3393 42.1067 32.4823 36.8634 37.5351 31.5901L43.6306 35.4198L51.1396 40.1016L53.0144 41.2646L53.4856 41.5553L53.7161 41.7057L53.8364 41.7759L54.047 41.8962C54.6429 42.2444 55.2939 42.4885 55.9719 42.618C56.6681 42.7433 57.381 42.7433 58.0772 42.618C58.7408 42.5065 59.3833 42.2934 59.982 41.9864C61.0651 41.4221 61.989 40.5948 62.6688 39.5803ZM10.7873 34.7882L7.62934 37.9261L7.53911 38.0264H7.46893L7.35865 38.1266L7.14812 38.277C7.02144 38.3441 6.88666 38.3946 6.7471 38.4274C6.51835 38.4731 6.28082 38.4377 6.0754 38.3271C5.7955 38.1426 5.56448 37.893 5.4021 37.5997C5.23973 37.3063 5.15084 36.978 5.14304 36.6429C5.14304 36.4223 5.14304 36.2619 5.14304 35.8308V34.728V32.5224C5.20987 29.575 5.27003 26.6275 5.32349 23.68L5.62426 14.8877V13.8852C5.63309 13.6985 5.66336 13.5135 5.71448 13.3338C5.79472 13.0118 5.94922 12.7131 6.16563 12.4616C6.30782 12.2828 6.49452 12.1445 6.707 12.0606C6.78484 12.033 6.86977 12.033 6.94761 12.0606L13.795 16.4617C16.9028 18.4668 20.0174 20.4719 23.1386 22.477L10.7873 34.7882ZM58.7589 13.8551V16.0407L58.6687 20.4518L58.5083 29.2942L58.4481 33.7155V35.0889C58.4528 35.1356 58.4528 35.1826 58.4481 35.2293C58.4481 35.3195 58.4481 35.4097 58.4481 35.5C58.3859 35.8351 58.2526 36.153 58.0571 36.4323C57.9139 36.6404 57.7209 36.8092 57.4957 36.9236C57.4054 36.9583 57.3054 36.9583 57.215 36.9236L57.0947 36.8534L56.2526 36.312L54.2776 35.0889L46.8387 30.3168L41.826 27.0987C45.7259 23.0584 49.9867 18.3966 55.8716 12.0305L56.2526 11.6194L56.423 11.429L56.5233 11.3387C56.6507 11.2299 56.7924 11.1388 56.9443 11.0681C57.1592 10.9629 57.4045 10.938 57.6361 10.9979C57.9231 11.0942 58.1789 11.266 58.3764 11.4954C58.574 11.7247 58.7062 12.0031 58.7589 12.3012C58.8032 12.4987 58.8267 12.7003 58.8291 12.9027L58.7589 13.8551Z" fill="#E4252C"/>
<path d="M93.9281 34.4373C93.9377 34.6109 93.9095 34.7845 93.8455 34.9462C93.7816 35.1079 93.6833 35.2538 93.5575 35.3739C93.4318 35.4939 93.2814 35.5853 93.117 35.6417C92.9525 35.6981 92.7777 35.7181 92.6047 35.7005C92.2999 35.7063 92.0004 35.6206 91.7448 35.4544C91.4892 35.2881 91.2894 35.0491 91.1711 34.7681L84.6245 20.4418C83.6921 17.8753 82.2986 16.2813 79.1707 16.2813C75.6818 16.2813 74.0176 18.2863 74.0176 21.1636V39.1191H77.9376V21.3641C77.9242 21.1848 77.9509 21.0046 78.0158 20.8369C78.0806 20.6691 78.182 20.5178 78.3125 20.394C78.443 20.2702 78.5994 20.177 78.7703 20.1211C78.9413 20.0652 79.1226 20.0481 79.301 20.0709C79.6135 20.0561 79.9219 20.147 80.1765 20.3289C80.4311 20.5107 80.6171 20.773 80.7046 21.0734L87.2512 35.3596C88.1835 37.9261 89.6071 39.5202 92.7351 39.5202C96.1938 39.5202 97.8881 37.5151 97.8881 34.5977V16.6823H93.9281V34.4373Z" fill="#151515"/>
<path d="M103.623 16.6824H99.7027V39.1193H103.623V16.6824Z" fill="#151515"/>
<path d="M150.211 16.6824H145.328L138.11 24.9534L131.233 16.6824H125.007L117.799 24.9534L110.911 16.6824H106.099L115.212 27.4196L105.187 39.1193H110.039L117.688 30.2067L125.147 39.1193H130.37L138.01 30.2067L145.459 39.1193H150.211L140.576 27.7204L150.211 16.6824ZM127.734 36.5327L120.255 27.7204L128.135 18.6975L135.554 27.4497L127.734 36.5327Z" fill="#151515"/>
<path d="M164.156 25.9258H158.903C156.276 25.9258 155.574 24.6225 155.574 23.2591C155.574 21.7051 156.477 20.6024 158.502 20.6024H170.001V16.6824H158.632C153.619 16.6824 151.614 19.4093 151.614 23.1288C151.614 26.2567 153.008 29.6152 158.993 29.6152H164.246C167.003 29.6152 167.765 30.9386 167.765 32.4023C167.765 34.0364 166.763 35.1994 164.677 35.1994H152.055V39.1193H164.547C169.67 39.1193 171.695 36.3322 171.695 32.5426C171.695 29.3144 170.262 25.9258 164.156 25.9258Z" fill="#151515"/>
<path d="M186.773 16.6824H183.706C177.199 16.6824 173.57 20.4018 173.57 27.951C173.57 35.5001 177.159 39.1193 183.706 39.1193H186.773C193.32 39.1193 196.909 35.46 196.909 27.951C196.909 20.4419 193.32 16.6824 186.773 16.6824ZM186.773 35.1994H183.706C179.355 35.1994 177.49 33.074 177.49 27.951C177.49 22.828 179.385 20.6024 183.706 20.6024H186.773C191.094 20.6024 192.949 22.7979 192.949 27.9209C192.949 33.0439 191.094 35.1994 186.773 35.1994Z" fill="#151515"/>
<path d="M208.288 35.1994C204.759 35.1994 203.696 33.5051 203.696 31.3396V16.6824H199.776V31.3696C199.776 35.861 202.102 39.1193 208.057 39.1193H217V35.1994H208.288Z" fill="#151515"/>
<path d="M103.623 11.038H99.7027V14.9579H103.623V11.038Z" fill="#E4252C"/>
</svg>
