<svg width="30" height="30" viewBox="0 0 30 30" fill="none" xmlns="http://www.w3.org/2000/svg">
<path d="M14.9984 14.9992C15.6859 14.9992 16.2746 14.7542 16.7646 14.2642C17.2538 13.775 17.4984 13.1867 17.4984 12.4992C17.4984 11.8117 17.2538 11.2229 16.7646 10.7329C16.2746 10.2438 15.6859 9.99919 14.9984 9.99919C14.3109 9.99919 13.7226 10.2438 13.2334 10.7329C12.7434 11.2229 12.4984 11.8117 12.4984 12.4992C12.4984 13.1867 12.7434 13.775 13.2334 14.2642C13.7226 14.7542 14.3109 14.9992 14.9984 14.9992ZM14.9984 27.0304C14.8317 27.0304 14.6651 26.9992 14.4984 26.9367C14.3317 26.8742 14.1859 26.7908 14.0609 26.6867C11.0192 23.9992 8.7484 21.5046 7.2484 19.2029C5.7484 16.9004 4.9984 14.7492 4.9984 12.7492C4.9984 9.62419 6.00382 7.13461 8.01465 5.28045C10.0246 3.42628 12.3526 2.4992 14.9984 2.4992C17.6442 2.4992 19.9721 3.42628 21.9821 5.28045C23.993 7.13461 24.9984 9.62419 24.9984 12.7492C24.9984 14.7492 24.2484 16.9004 22.7484 19.2029C21.2484 21.5046 18.9776 23.9992 15.9359 26.6867C15.8109 26.7908 15.6651 26.8742 15.4984 26.9367C15.3317 26.9992 15.1651 27.0304 14.9984 27.0304Z" fill="white"/>
</svg>
