<svg width="43" height="46" viewBox="0 0 43 46" fill="none" xmlns="http://www.w3.org/2000/svg">
<path d="M10.2213 40H32.7787C33.922 40 34.9004 39.6126 35.7138 38.8379C36.5273 38.0632 36.956 37.0781 37 35.8828V35.75C37 34.6875 36.7142 33.6914 36.1426 32.7617L25.7213 18.75V8.85547H27.1064C27.4582 8.85547 27.7879 8.70052 28.0957 8.39062C28.4035 8.08073 28.5574 7.7487 28.5574 7.39453C28.5574 7.04036 28.4035 6.7194 28.0957 6.43164C27.7879 6.14388 27.4582 6 27.1064 6H15.8936C15.5418 6 15.2121 6.14388 14.9043 6.43164C14.5965 6.7194 14.4426 7.04036 14.4426 7.39453C14.4426 7.7487 14.5965 8.08073 14.9043 8.39062C15.2121 8.70052 15.5418 8.85547 15.8936 8.85547H17.2787V18.6172L6.98936 32.6289C6.41773 33.5586 6.13191 34.5104 6.13191 35.4844L6 35.75C6.04397 36.9453 6.48369 37.9525 7.31915 38.7715C8.15461 39.5905 9.12199 40 10.2213 40ZM17.2787 23.3984L18.0043 22.6016C19.0596 21.0964 19.7631 19.3919 20.1149 17.4883V8.85547H22.8851V17.3555C23.2809 19.4362 23.9844 21.1185 24.9957 22.4023L25.7213 23.2656L28.5574 27.1172H14.4426L17.2787 23.3984ZM9.23191 34.3555L13.0574 29.1094L10.4521 30.1055H30.6681L33.7681 34.3555C33.856 34.444 33.9879 34.8646 34.1638 35.6172C34.1638 36.0156 34.0209 36.3698 33.7351 36.6797C33.4493 36.9896 33.1305 37.1445 32.7787 37.1445H10.2213C9.8695 37.1445 9.55071 36.9896 9.26489 36.6797C8.97908 36.3698 8.83617 36.0156 8.83617 35.6172C8.83617 35.0417 8.96809 34.6211 9.23191 34.3555Z" fill="#E92129"/>
</svg>
