<svg width="31" height="34" viewBox="0 0 31 34" fill="none" xmlns="http://www.w3.org/2000/svg">
<path d="M4.22128 34H26.7787C27.922 34 28.9004 33.6126 29.7138 32.8379C30.5273 32.0632 30.956 31.0781 31 29.8828V29.75C31 28.6875 30.7142 27.6914 30.1426 26.7617L19.7213 12.75V2.85547H21.1064C21.4582 2.85547 21.7879 2.70052 22.0957 2.39062C22.4035 2.08073 22.5574 1.7487 22.5574 1.39453C22.5574 1.04036 22.4035 0.719401 22.0957 0.431641C21.7879 0.14388 21.4582 0 21.1064 0H9.89362C9.54184 0 9.21206 0.14388 8.90426 0.431641C8.59645 0.719401 8.44255 1.04036 8.44255 1.39453C8.44255 1.7487 8.59645 2.08073 8.90426 2.39062C9.21206 2.70052 9.54184 2.85547 9.89362 2.85547H11.2787V12.6172L0.989362 26.6289C0.41773 27.5586 0.131915 28.5104 0.131915 29.4844L0 29.75C0.0439716 30.9453 0.483688 31.9525 1.31915 32.7715C2.15461 33.5905 3.12199 34 4.22128 34ZM11.2787 17.3984L12.0043 16.6016C13.0596 15.0964 13.7631 13.3919 14.1149 11.4883V2.85547H16.8851V11.3555C17.2809 13.4362 17.9844 15.1185 18.9957 16.4023L19.7213 17.2656L22.5574 21.1172H8.44255L11.2787 17.3984ZM3.23191 28.3555L7.05745 23.1094L4.45213 24.1055H24.6681L27.7681 28.3555C27.856 28.444 27.9879 28.8646 28.1638 29.6172C28.1638 30.0156 28.0209 30.3698 27.7351 30.6797C27.4493 30.9896 27.1305 31.1445 26.7787 31.1445H4.22128C3.8695 31.1445 3.55071 30.9896 3.26489 30.6797C2.97908 30.3698 2.83617 30.0156 2.83617 29.6172C2.83617 29.0417 2.96809 28.6211 3.23191 28.3555Z" fill="#E92129"/>
</svg>
